<svg width="40" height="40" viewBox="0 0 40 40" fill="none" xmlns="http://www.w3.org/2000/svg">
<path d="M9.99967 15H4.99967C4.08301 15 3.33301 14.25 3.33301 13.3334C3.33301 12.4167 4.08301 11.6667 4.99967 11.6667H9.99967C10.9163 11.6667 11.6663 12.4167 11.6663 13.3334C11.6663 14.25 10.9163 15 9.99967 15ZM9.99967 20H4.99967C4.08301 20 3.33301 20.75 3.33301 21.6667C3.33301 22.5834 4.08301 23.3334 4.99967 23.3334H9.99967C10.9163 23.3334 11.6663 22.5834 11.6663 21.6667C11.6663 20.75 10.9163 20 9.99967 20ZM33.133 30.4834L27.933 25.2834C26.4997 26.2167 24.783 26.75 22.933 26.65C18.983 26.4667 15.5997 23.3834 15.0663 19.4667C14.8903 18.1649 15.0237 16.84 15.4558 15.5994C15.8878 14.3589 16.6062 13.2377 17.5528 12.3268C18.4994 11.416 19.6474 10.7412 20.9036 10.3571C22.1599 9.97314 23.489 9.89076 24.783 10.1167C28.033 10.6667 30.733 13.2 31.4497 16.4167C31.9997 18.85 31.4663 21.1167 30.283 22.9167L35.4997 28.1334C36.1497 28.7834 36.1497 29.8334 35.4997 30.4834C34.8497 31.1334 33.783 31.1334 33.133 30.4834ZM28.333 18.3334C28.333 15.5834 26.083 13.3334 23.333 13.3334C20.583 13.3334 18.333 15.5834 18.333 18.3334C18.333 21.0834 20.583 23.3334 23.333 23.3334C26.083 23.3334 28.333 21.0834 28.333 18.3334ZM4.99967 31.6667H18.333C19.2497 31.6667 19.9997 30.9167 19.9997 30C19.9997 29.0834 19.2497 28.3334 18.333 28.3334H4.99967C4.08301 28.3334 3.33301 29.0834 3.33301 30C3.33301 30.9167 4.08301 31.6667 4.99967 31.6667Z" fill="black"/>
</svg>
