<svg width="40" height="40" viewBox="0 0 40 40" fill="none" xmlns="http://www.w3.org/2000/svg">
<path d="M34.95 12.1167C35.1045 11.9625 35.2271 11.7794 35.3107 11.5777C35.3944 11.3761 35.4374 11.16 35.4374 10.9417C35.4374 10.7234 35.3944 10.5073 35.3107 10.3057C35.2271 10.104 35.1045 9.92089 34.95 9.7667L30.2333 5.05003C30.0791 4.89552 29.896 4.77294 29.6944 4.68931C29.4928 4.60567 29.2766 4.56262 29.0583 4.56262C28.8401 4.56262 28.6239 4.60567 28.4223 4.68931C28.2207 4.77294 28.0375 4.89552 27.8833 5.05003L20.4 12.5334L13.9167 6.05003C12.6167 4.75003 10.5 4.75003 9.2 6.05003L6.03333 9.2167C4.73333 10.5167 4.73333 12.6334 6.03333 13.9334L12.5167 20.4167L5 27.9334V35H12.0667L19.6 27.4667L26.0833 33.95C27.6667 35.5334 29.8 34.95 30.8 33.95L33.9667 30.7834C35.2667 29.4834 35.2667 27.3667 33.9667 26.0667L27.4833 19.5834L34.95 12.1167ZM8.4 11.5667L11.55 8.40003L13.6667 10.5167L11.7 12.5L14.05 14.85L16.0333 12.8667L18.0333 14.8667L14.8667 18.0334L8.4 11.5667ZM27.1167 23.9667L25.1333 25.95L27.4833 28.3L29.4667 26.3167L31.5833 28.4334L28.4167 31.6L21.9333 25.1167L25.1 21.95L27.1167 23.9667ZM10.6833 31.6667H8.33333V29.3167L24.35 13.3L26.5167 15.4667L26.7 15.65L10.6833 31.6667ZM26.7 10.9334L29.05 8.58336L31.4 10.9334L29.05 13.2834L26.7 10.9334Z" fill="black"/>
</svg>
