<svg width="40" height="40" viewBox="0 0 40 40" fill="none" xmlns="http://www.w3.org/2000/svg">
<path d="M11.6665 8.33335H28.3332V11.6667H31.6665V5.00002C31.6665 3.16669 30.1665 1.68335 28.3332 1.68335L11.6665 1.66669C9.83317 1.66669 8.33317 3.16669 8.33317 5.00002V11.6667H11.6665V8.33335ZM25.6832 27.65L33.3332 20L25.6832 12.35L23.3332 14.7167L28.6165 20L23.3332 25.2834L25.6832 27.65ZM16.6665 25.2834L11.3832 20L16.6665 14.7167L14.3165 12.35L6.6665 20L14.3165 27.65L16.6665 25.2834ZM28.3332 31.6667H11.6665V28.3334H8.33317V35C8.33317 36.8334 9.83317 38.3334 11.6665 38.3334H28.3332C30.1665 38.3334 31.6665 36.8334 31.6665 35V28.3334H28.3332V31.6667Z" fill="black"/>
</svg>
